# xmcd
#
# Track frame offsets: 
#        150
#        23160
#        40637
#        59387
#        78252
#        97622
#        116197
#        134340
#        154442
#        175347
#        195335
#        217017
#
# Disc length: 3108 seconds
#
# Revision: 12
# Processed by: cddbd v1.5.2PL0 Copyright (c) Steve Scherf et al.
# Submitted via: ExactAudioCopy v1.0b3
#
DISCID=9b0c220c
DTITLE=Cline Dion - S'il Suffisait D'Aimer
DYEAR=1998
DGENRE=Pop
TTITLE0=01 Je Crois Toi
TTITLE1=02 Zora Sourit
TTITLE2=03 On Ne Change Pas
TTITLE3=04 Je Chanterai
TTITLE4=05 Terre
TTITLE5=06 En Attendant Ses Pas
TTITLE6=07 Papillon
TTITLE7=08 L'abandon
TTITLE8=09 Dans Un Autre Monde
TTITLE9=10 Sur Le Mme Bateau
TTITLE10=11 Tous Les Blues Sont crits Pour Toi
TTITLE11=12 S'il Suffisait D'Aimer
EXTD=
EXTT0=
EXTT1=
EXTT2=
EXTT3=
EXTT4=
EXTT5=
EXTT6=
EXTT7=
EXTT8=
EXTT9=
EXTT10=
EXTT11=
PLAYORDER=
